<svg width="360" height="398" viewBox="0 0 360 398" fill="none" xmlns="http://www.w3.org/2000/svg">
<g filter="url(#filter0_ddd_1_313)">
<circle cx="178" cy="187" r="142" fill="#F7FAFD"/>
<circle cx="178" cy="187" r="142" stroke="url(#paint0_linear_1_313)" stroke-opacity="0.2" stroke-width="0.5"/>
</g>
<g filter="url(#filter1_d_1_313)">
<path fill-rule="evenodd" clip-rule="evenodd" d="M265.782 135.182C265.639 127.655 257.965 123.805 250.191 124.293C245.831 124.568 234.621 127.133 218.231 120.738C204.419 115.352 200.153 106.214 185.697 101.855C181.929 100.715 175.541 100.715 171.769 101.855C157.316 106.214 153.047 115.352 139.235 120.738C122.849 127.133 111.649 124.304 107.278 124.293C99.0801 124.276 93.3578 129.005 93.3613 136.803C93.3613 136.803 83.7516 228.06 163.658 266.16C165.423 267.001 171.969 269.99 178.661 270H178.808C185.497 269.986 192.046 267.001 193.808 266.16C273.718 228.06 265.782 135.182 265.782 135.182Z" fill="#F7FAFD"/>
<path d="M265.532 135.187L265.532 135.195L265.533 135.203L265.782 135.182C265.533 135.203 265.533 135.203 265.533 135.204L265.533 135.207L265.534 135.219L265.538 135.269C265.542 135.313 265.547 135.379 265.553 135.467C265.566 135.643 265.583 135.905 265.602 136.248C265.641 136.935 265.687 137.949 265.717 139.253C265.778 141.861 265.776 145.632 265.524 150.276C265.02 159.565 263.517 172.346 259.521 186.315C251.529 214.251 233.572 246.924 193.7 265.934L193.7 265.935C191.942 266.774 185.436 269.737 178.808 269.75H178.662C172.029 269.74 165.528 266.774 163.766 265.934C123.896 246.924 106.358 214.657 98.7858 187.128C94.9991 173.363 93.7052 160.785 93.3581 151.648C93.1846 147.08 93.2477 143.373 93.3542 140.809C93.4074 139.527 93.4715 138.531 93.5221 137.856C93.5475 137.519 93.5695 137.261 93.5851 137.089C93.5929 137.003 93.5991 136.937 93.6034 136.894L93.6083 136.845L93.6095 136.833L93.6098 136.83C93.6099 136.83 93.6099 136.83 93.3613 136.803L93.6099 136.83L93.6113 136.816L93.6113 136.803C93.6095 132.969 95.013 129.909 97.4091 127.806C99.8087 125.699 103.226 124.535 107.278 124.543C108.065 124.545 109.084 124.641 110.324 124.757C115.883 125.28 125.879 126.218 139.326 120.971C145.822 118.438 150.22 115.077 154.523 111.789C154.82 111.562 155.117 111.336 155.413 111.11C160.008 107.611 164.659 104.26 171.841 102.094L171.841 102.094C173.696 101.534 176.209 101.25 178.734 101.25C181.259 101.25 183.772 101.534 185.624 102.094L185.625 102.094C192.808 104.26 197.46 107.611 202.054 111.11C202.351 111.336 202.648 111.563 202.945 111.79C207.247 115.078 211.645 118.438 218.14 120.971C232.329 126.507 242.667 125.354 248.026 124.757C248.881 124.662 249.61 124.581 250.207 124.543C254.052 124.301 257.859 125.134 260.714 126.943C263.563 128.748 265.462 131.52 265.532 135.187Z" stroke="url(#paint1_linear_1_313)" stroke-opacity="0.4" stroke-width="0.5"/>
</g>
<g filter="url(#filter2_d_1_313)">
<path fill-rule="evenodd" clip-rule="evenodd" d="M216.49 210.473C211.373 217.835 204.175 225.157 196.758 230.327C190.746 234.518 184.676 238.102 179.285 239C173.782 237.941 167.342 233.967 161.129 229.208C154.578 224.189 148.264 217.316 143.51 210.477C130.523 191.798 130.882 172.417 144.314 162.941C154.088 156.039 168.094 158.614 180.002 167.462C191.909 158.617 205.912 156.039 215.689 162.941C229.118 172.414 229.476 191.794 216.49 210.473Z" fill="white"/>
<path d="M216.285 210.33L216.49 210.473L216.285 210.33C211.184 217.669 204.007 224.97 196.615 230.122L196.758 230.327L196.615 230.122C190.619 234.302 184.607 237.846 179.288 238.746C173.856 237.686 167.475 233.754 161.281 229.01C154.754 224.009 148.457 217.155 143.715 210.334C137.244 201.026 134.111 191.562 134.255 183.262C134.399 174.969 137.814 167.833 144.458 163.146L144.458 163.145C154.104 156.334 167.985 158.844 179.852 167.663L180.002 167.773L180.151 167.663C192.018 158.847 205.896 156.334 215.545 163.146L215.545 163.146C222.187 167.831 225.602 174.966 225.745 183.259C225.889 191.559 222.756 201.023 216.285 210.33Z" stroke="url(#paint2_linear_1_313)" stroke-opacity="0.41" stroke-width="0.5"/>
</g>
<defs>
<filter id="filter0_ddd_1_313" x="-0.25" y="0.75" width="380.5" height="396.5" filterUnits="userSpaceOnUse" color-interpolation-filters="sRGB">
<feFlood flood-opacity="0" result="BackgroundImageFix"/>
<feColorMatrix in="SourceAlpha" type="matrix" values="0 0 0 0 0 0 0 0 0 0 0 0 0 0 0 0 0 0 127 0" result="hardAlpha"/>
<feMorphology radius="17" operator="dilate" in="SourceAlpha" result="effect1_dropShadow_1_313"/>
<feOffset dx="14" dy="22"/>
<feGaussianBlur stdDeviation="14.5"/>
<feColorMatrix type="matrix" values="0 0 0 0 0.148194 0 0 0 0 0.537676 0 0 0 0 0.808333 0 0 0 0.08 0"/>
<feBlend mode="normal" in2="BackgroundImageFix" result="effect1_dropShadow_1_313"/>
<feColorMatrix in="SourceAlpha" type="matrix" values="0 0 0 0 0 0 0 0 0 0 0 0 0 0 0 0 0 0 127 0" result="hardAlpha"/>
<feOffset dx="-14" dy="-22"/>
<feGaussianBlur stdDeviation="11"/>
<feColorMatrix type="matrix" values="0 0 0 0 1 0 0 0 0 1 0 0 0 0 1 0 0 0 1 0"/>
<feBlend mode="normal" in2="effect1_dropShadow_1_313" result="effect2_dropShadow_1_313"/>
<feColorMatrix in="SourceAlpha" type="matrix" values="0 0 0 0 0 0 0 0 0 0 0 0 0 0 0 0 0 0 127 0" result="hardAlpha"/>
<feOffset dx="5" dy="6"/>
<feGaussianBlur stdDeviation="2.5"/>
<feColorMatrix type="matrix" values="0 0 0 0 0.14902 0 0 0 0 0.537255 0 0 0 0 0.807843 0 0 0 0.03 0"/>
<feBlend mode="normal" in2="effect2_dropShadow_1_313" result="effect3_dropShadow_1_313"/>
<feBlend mode="normal" in="SourceGraphic" in2="effect3_dropShadow_1_313" result="shape"/>
</filter>
<filter id="filter1_d_1_313" x="89" y="101" width="181" height="177" filterUnits="userSpaceOnUse" color-interpolation-filters="sRGB">
<feFlood flood-opacity="0" result="BackgroundImageFix"/>
<feColorMatrix in="SourceAlpha" type="matrix" values="0 0 0 0 0 0 0 0 0 0 0 0 0 0 0 0 0 0 127 0" result="hardAlpha"/>
<feOffset dy="4"/>
<feGaussianBlur stdDeviation="2"/>
<feComposite in2="hardAlpha" operator="out"/>
<feColorMatrix type="matrix" values="0 0 0 0 0 0 0 0 0 0 0 0 0 0 0 0 0 0 0.25 0"/>
<feBlend mode="normal" in2="BackgroundImageFix" result="effect1_dropShadow_1_313"/>
<feBlend mode="normal" in="SourceGraphic" in2="effect1_dropShadow_1_313" result="shape"/>
</filter>
<filter id="filter2_d_1_313" x="130" y="159" width="100" height="88" filterUnits="userSpaceOnUse" color-interpolation-filters="sRGB">
<feFlood flood-opacity="0" result="BackgroundImageFix"/>
<feColorMatrix in="SourceAlpha" type="matrix" values="0 0 0 0 0 0 0 0 0 0 0 0 0 0 0 0 0 0 127 0" result="hardAlpha"/>
<feOffset dy="4"/>
<feGaussianBlur stdDeviation="2"/>
<feComposite in2="hardAlpha" operator="out"/>
<feColorMatrix type="matrix" values="0 0 0 0 0 0 0 0 0 0 0 0 0 0 0 0 0 0 0.25 0"/>
<feBlend mode="normal" in2="BackgroundImageFix" result="effect1_dropShadow_1_313"/>
<feBlend mode="normal" in="SourceGraphic" in2="effect1_dropShadow_1_313" result="shape"/>
</filter>
<linearGradient id="paint0_linear_1_313" x1="94.3242" y1="98.4862" x2="279.601" y2="179.658" gradientUnits="userSpaceOnUse">
<stop stop-color="#33DDEC"/>
<stop offset="1" stop-color="#34AAFC"/>
</linearGradient>
<linearGradient id="paint1_linear_1_313" x1="128.528" y1="132.828" x2="240.527" y2="183.057" gradientUnits="userSpaceOnUse">
<stop stop-color="#33DDEC"/>
<stop offset="1" stop-color="#34AAFC"/>
</linearGradient>
<linearGradient id="paint2_linear_1_313" x1="152.894" y1="174.067" x2="209.95" y2="202.813" gradientUnits="userSpaceOnUse">
<stop stop-color="#33DDEC"/>
<stop offset="1" stop-color="#34AAFC"/>
</linearGradient>
</defs>
</svg>
